<svg xmlns="http://www.w3.org/2000/svg" viewBox="0 0 512 512"><path fill="#404040" d="M415.87,209.48C425.53,159,398.54,94.22,353.82,66.42,280.12,18.84,154.72,46,123.18,127c-12.91,29.56-16.75,55.27-12.18,82.51a63.66,63.66,0,0,0-33.11,70.84l9.16,39.91c6,28.26,33.11,49.76,61.82,49.37,8.4.43,20.2-3.15,28.46-4.88a7.5,7.5,0,0,0,5.64-9L148.74,206.55a7.52,7.52,0,0,0-9-5.63l-14.12,3.24-.25.07c-9-81.25,51.07-147.15,141.58-146,59.34,0,102,25.85,123.36,74.74,11.08,25.37,14.61,47.69,11.17,71.26l-.26-.07-14.12-3.24a7.55,7.55,0,0,0-9,5.63L343.89,355.74a7.5,7.5,0,0,0,5.64,9l13.66,3.14c-9.9,36.58-29.6,50.48-65.56,49.61V405.33a7.5,7.5,0,0,0-7.5-7.5H253.7a24.49,24.49,0,0,0-24.47,24.47v5.34a24.5,24.5,0,0,0,24.47,24.47h36.43a7.5,7.5,0,0,0,7.5-7.5V432.47c45,.88,69.45-19.31,80.61-62.88,28.64.28,55.63-21.18,61.57-49.36L449,280.32A63.67,63.67,0,0,0,415.87,209.48ZM135.8,217.22l30.87,134.56-6.82,1.56c-25.32,6.37-52.87-10.9-58.18-36.46L92.51,277a48.63,48.63,0,0,1,21.77-52.13L129.23,290a7.5,7.5,0,0,0,14.62-3.35L128.32,219C128.41,218.9,135.49,217.29,135.8,217.22ZM282.63,437.11H253.7a9.48,9.48,0,0,1-9.47-9.47V422.3a9.48,9.48,0,0,1,9.47-9.47h28.93ZM434.35,277l-9.16,39.91c-5.31,25.56-32.86,42.82-58.18,36.46l-6.82-1.56,30.87-134.56c.32.08,7.39,1.68,7.48,1.73L383,286.65A7.5,7.5,0,0,0,397.63,290l14.95-65.16A48.63,48.63,0,0,1,434.35,277Z"/></svg>