<svg xmlns="http://www.w3.org/2000/svg" width="24" height="24" viewBox="0 0 24 24"><g fill="none" fill-rule="evenodd" stroke="#4A4A4A"><path d="M20.422 3.193A7.379 7.379 0 0 1 16.59 4.26c-1.699 0-3.31-.575-4.607-1.606A7.381 7.381 0 0 1 7.375 4.26a7.379 7.379 0 0 1-3.833-1.067A13.278 13.278 0 0 0 2.5 8.367a13.327 13.327 0 0 0 9.482 12.76 13.327 13.327 0 0 0 9.482-12.76c0-1.802-.357-3.553-1.042-5.174z"/><path stroke-linecap="round" stroke-linejoin="round" d="M8.317 11.633l3.284 2.844 5.037-5.488"/></g></svg>