<?xml version="1.0" encoding="utf-8"?>
<!-- Generator: Adobe Illustrator 19.0.0, SVG Export Plug-In . SVG Version: 6.00 Build 0)  -->
<svg version="1.1" id="Layer_1" xmlns="http://www.w3.org/2000/svg" xmlns:xlink="http://www.w3.org/1999/xlink" x="0px" y="0px"
	 viewBox="-359 361 80 80" style="enable-background:new -359 361 80 80;" xml:space="preserve">
<style type="text/css">
	.st0{fill:#4A4A4A;}
</style>
<path class="st0" d="M-289.5,366h-59.1c-3,0-5.5,2.5-5.5,5.5v48.1c0,3,2.5,5.5,5.5,5.5h20.2c-0.3,3.2-2.4,5.7-6.3,9.3
	c-0.3,0.3-0.4,0.7-0.3,1.1c0.1,0.4,0.5,0.6,0.9,0.6h30c0.4,0,0.8-0.3,0.9-0.7c0.1-0.4,0-0.9-0.3-1.1c-4-3-6.1-6.1-6.3-9.2h20.2
	c3,0,5.5-2.5,5.5-5.5v-48.1C-284,368.5-286.5,366-289.5,366z M-348.5,368h59.1c1.9,0,3.5,1.6,3.5,3.5V413h-66v-41.5
	C-352,369.6-350.4,368-348.5,368z M-306.8,434h-24.7c2.8-2.7,4.9-5.4,5.1-9h14.6C-311.6,428.1-309.9,431.1-306.8,434z M-289.5,423
	h-21.2h-16.6h-21.2c-1.9,0-3.5-1.6-3.5-3.5V415h66v4.5C-286,421.4-287.6,423-289.5,423z"/>
<path class="st0" d="M-341,418h-4c-0.6,0-1,0.4-1,1s0.4,1,1,1h4c0.6,0,1-0.4,1-1S-340.4,418-341,418z M-327.9,387.3h4.2v3.4
	c0,0.6,0.4,1,1,1s1-0.4,1-1v-3.4h1.6c0.6,0,1-0.4,1-1s-0.4-1-1-1h-1.6v-6c0,0,0,0,0-0.1c0-0.1,0-0.1,0-0.2c0-0.1,0-0.1-0.1-0.2
	c0-0.1-0.1-0.1-0.1-0.2c0-0.1-0.1-0.1-0.1-0.2c0,0,0,0,0-0.1c0,0-0.1,0-0.1,0c-0.1,0-0.1-0.1-0.2-0.1c-0.1,0-0.1,0-0.2,0
	c0,0-0.1,0-0.1,0c0,0,0,0-0.1,0c-0.1,0-0.1,0-0.2,0c-0.1,0-0.1,0-0.2,0.1c-0.1,0-0.1,0.1-0.2,0.1c-0.1,0-0.1,0.1-0.2,0.1
	c0,0,0,0-0.1,0l-5.2,7c-0.2,0.3-0.3,0.7-0.1,1S-328.2,387.3-327.9,387.3z M-323.6,382.3v3h-2.2L-323.6,382.3z M-339.2,389
	c-0.3,0.3-0.4,0.7-0.3,1.1s0.5,0.6,0.9,0.6h7c0.6,0,1-0.4,1-1s-0.4-1-1-1h-4.4l3.5-3.2c0.9-0.9,1.3-1.9,1.3-3c0-2.4-2-4.3-4.4-4.3
	c-1.7,0-3.2,0.9-4,2.4c-0.2,0.5,0,1.1,0.4,1.3c0.5,0.2,1.1,0,1.3-0.4c0.4-0.8,1.2-1.3,2.2-1.3c1.3,0,2.4,1,2.4,2.3
	c0,0.6-0.2,1.1-0.7,1.6L-339.2,389z M-310.9,393.1c0,0.6,0.4,1,1,1h4l-2.8,7.4c-0.2,0.5,0.1,1.1,0.6,1.3c0.1,0,0.2,0.1,0.4,0.1
	c0.4,0,0.8-0.2,0.9-0.6l3.3-8.7c0.1-0.3,0.1-0.7-0.1-0.9c-0.2-0.3-0.5-0.4-0.8-0.4h-5.5C-310.4,392.1-310.9,392.5-310.9,393.1z
	 M-320.9,405.6c0.1,0,0.2,0.1,0.4,0.1c0.4,0,0.8-0.2,0.9-0.6l10.8-28.4c0.2-0.5-0.1-1.1-0.6-1.3c-0.5-0.2-1.1,0.1-1.3,0.6
	l-10.8,28.4C-321.7,404.9-321.4,405.4-320.9,405.6z"/>
</svg>
