<?xml version="1.0" encoding="utf-8"?>
<!-- Generator: Adobe Illustrator 19.0.0, SVG Export Plug-In . SVG Version: 6.00 Build 0)  -->
<svg version="1.1" id="Layer_1" xmlns="http://www.w3.org/2000/svg" xmlns:xlink="http://www.w3.org/1999/xlink" x="0px" y="0px"
	 viewBox="-367 369 64 64" style="enable-background:new -367 369 64 64;" xml:space="preserve">
<style type="text/css">
	.st0{fill:#4A4A4A;}
</style>
<g id="Layer_46">
	<path class="st0" d="M-331.7,394.7c0.2,0,0.5-0.1,0.7-0.3l7.3-7.3c0.3-0.3,0.3-0.7,0.2-1c-1.5-3.8,0.4-8,4.1-9.5
		c0.7-0.3,1.3-0.4,2-0.5l-2.7,2.7c-0.2,0.2-0.3,0.6-0.2,0.9l1.4,5.1c0.1,0.3,0.3,0.6,0.7,0.7l5.1,1.4c0.1,0,0.2,0,0.2,0
		c0.2,0,0.5-0.1,0.7-0.3l2.7-2.7c-0.3,4-3.9,7-7.9,6.7c-0.7-0.1-1.4-0.2-2-0.5l0,0c-0.3-0.1-0.8-0.1-1,0.2l-7.3,7.3
		c-0.4,0.4-0.4,1,0,1.3s1,0.4,1.3,0l6.8-6.9c6.4,2.2,13.2-3.8,11.8-10.4c-0.1-0.4-0.4-0.7-0.8-0.7c-0.3,0-0.5,0.1-0.8,0.3l-3.7,3.7
		l-4.1-1.1l-1.1-4l3.7-3.7c0.2-0.2,0.3-0.5,0.3-0.8c0-0.4-0.3-0.8-0.7-0.9c-6.7-1.4-12.6,5.4-10.4,11.8l-6.9,6.9
		c-0.4,0.4-0.4,1,0,1.3C-332.2,394.6-331.9,394.7-331.7,394.7z"/>
	<path class="st0" d="M-338.3,408.1l-6.8,6.8c-0.8-1.3-1.9-2.5-3.2-3.2l6.9-6.8c0.4-0.4,0.4-1,0-1.3c-0.4-0.4-1-0.4-1.3,0l-7.4,7.4
		c-8.7-2.6-15.3,8.1-8.8,14.7c6.5,6.6,17.4-0.1,14.7-8.8l7.4-7.3c0.4-0.4,0.4-1,0-1.3C-337.3,407.7-337.9,407.7-338.3,408.1z
		 M-347.9,424.3c-6.8,6.3-16.2-3.1-9.9-9.9c2.7-2.7,7.1-2.7,9.9,0S-345.1,421.6-347.9,424.3L-347.9,424.3z"/>
	<path class="st0" d="M-351.1,414.9c-0.2-0.2-0.6-0.3-0.9-0.2l-3.8,1c-0.3,0.1-0.6,0.3-0.7,0.7l-1,3.8c-0.1,0.3,0,0.7,0.2,0.9
		l2.8,2.8c0.2,0.2,0.6,0.3,0.9,0.2l3.8-1c0.3-0.1,0.6-0.3,0.7-0.7l1-3.8c0.1-0.3,0-0.7-0.2-0.9L-351.1,414.9z M-350.7,421.4
		l-2.8,0.8l-2.1-2.1l0.8-2.8l2.8-0.7l2.1,2.1L-350.7,421.4z"/>
	<path class="st0" d="M-307.8,421.1c1.5-6.6-5.2-12.6-11.5-10.4l-24.8-24.8c2.2-6.3-3.7-13-10.3-11.6c-0.4,0.1-0.7,0.4-0.7,0.8
		c0,0.3,0.1,0.6,0.3,0.8l3.7,3.7l-1.1,3.9l-4,1.1l-3.7-3.7c-0.2-0.2-0.5-0.2-0.7-0.2c-0.4,0-0.7,0.3-0.8,0.7
		c-1.4,6.5,5.3,12.5,11.6,10.3l24.8,24.8c-2.2,6.3,3.7,13,10.3,11.6c0.4-0.1,0.7-0.4,0.7-0.8c0-0.3-0.1-0.6-0.3-0.8l-3.7-3.7l1.1-4
		l4-1.1l3.7,3.7c0.2,0.2,0.4,0.3,0.7,0.3l0,0C-308.3,421.8-307.9,421.5-307.8,421.1z M-313,415.9l-5,1.3c-0.3,0.1-0.6,0.3-0.7,0.7
		l-1.3,5c-0.1,0.3,0,0.7,0.2,0.9l2.6,2.6c-3.9-0.4-6.8-3.8-6.5-7.8c0.1-0.7,0.2-1.3,0.5-2c0.1-0.2,0.1-0.4,0-0.5
		c0-0.2-0.1-0.4-0.2-0.5l-25.6-25.6l0,0c-0.3-0.3-0.7-0.3-1-0.2c-3.7,1.5-7.8-0.3-9.3-4c-0.3-0.7-0.4-1.4-0.5-2.1l2.6,2.6
		c0.2,0.2,0.4,0.3,0.7,0.3c0.1,0,0.2,0,0.2,0l5-1.3c0.3-0.1,0.6-0.3,0.7-0.7l1.3-5c0.1-0.3,0-0.7-0.2-0.9l-2.6-2.6
		c3.9,0.4,6.8,3.8,6.5,7.8c-0.1,0.7-0.2,1.3-0.5,2c-0.1,0.2-0.1,0.5,0,0.7c0.1,0.5,25.6,25.6,25.8,25.9c0.1,0.1,0.3,0.2,0.5,0.2
		c0.2,0.1,0.3,0.1,0.5,0c3.7-1.5,7.8,0.3,9.3,4c0.3,0.7,0.4,1.3,0.5,2l-2.6-2.6C-312.3,415.8-312.7,415.8-313,415.9z"/>
</g>
</svg>
