<?xml version="1.0" encoding="utf-8"?>
<!-- Generator: Adobe Illustrator 19.0.0, SVG Export Plug-In . SVG Version: 6.00 Build 0)  -->
<svg version="1.1" id="Layer_1" xmlns="http://www.w3.org/2000/svg" xmlns:xlink="http://www.w3.org/1999/xlink" x="0px" y="0px"
	 viewBox="112 -40 512 512" style="enable-background:new 112 -40 512 512;" xml:space="preserve">
<style type="text/css">
	.st0{fill:#FFFFFF;}
</style>
<path class="st0" d="M482.6,129.3c-2.4-6.4-6.1-12.2-11-16.9c-4.7-4.9-10.5-8.6-16.9-11c-5.2-2-13-4.4-27.3-5.1
	c-15.5-0.7-20.2-0.9-59.4-0.9c-39.3,0-43.9,0.1-59.4,0.9c-14.3,0.7-22.1,3.1-27.3,5.1c-6.4,2.4-12.2,6.1-16.9,11
	c-4.9,4.7-8.6,10.5-11,16.9c-2,5.2-4.4,13-5.1,27.3c-0.7,15.5-0.9,20.1-0.9,59.4c0,39.3,0.2,43.9,0.9,59.4c0.7,14.3,3,22.1,5.1,27.3
	c2.4,6.4,6.1,12.2,11,16.9c4.7,4.9,10.5,8.6,16.9,11c5.2,2,13,4.4,27.3,5.1c15.5,0.7,20.1,0.9,59.4,0.9c39.3,0,43.9-0.1,59.4-0.9
	c14.3-0.7,22.1-3,27.3-5.1c12.8-4.9,23-15.1,27.9-27.9c2-5.2,4.4-13,5.1-27.3c0.7-15.5,0.9-20.2,0.9-59.4c0-39.3-0.1-43.9-0.9-59.4
	C487,142.3,484.6,134.5,482.6,129.3z M368,291.5c-41.7,0-75.5-33.8-75.5-75.5s33.8-75.5,75.5-75.5c41.7,0,75.5,33.8,75.5,75.5
	S409.7,291.5,368,291.5z M446.5,155.2c-9.7,0-17.6-7.9-17.6-17.6s7.9-17.6,17.6-17.6s17.6,7.9,17.6,17.6
	C464.1,147.3,456.2,155.2,446.5,155.2z"/>
<path class="st0" d="M417,216c0,27.1-21.9,49-49,49s-49-21.9-49-49s21.9-49,49-49S417,188.9,417,216z"/>
<path class="st0" d="M587.1-40H148.9C128.5-40,112-23.5,112-3.1v438.1c0,20.4,16.5,36.9,36.9,36.9h438.1c20.4,0,36.9-16.5,36.9-36.9
	V-3.1C624-23.5,607.5-40,587.1-40z M514.1,276.6c-0.7,15.6-3.2,26.3-6.8,35.7c-7.6,19.7-23.2,35.4-43,43c-9.3,3.6-20,6.1-35.7,6.8
	c-15.7,0.7-20.7,0.9-60.6,0.9c-39.9,0-44.9-0.2-60.6-0.9c-15.6-0.7-26.3-3.2-35.7-6.8c-9.8-3.7-18.7-9.5-26-17
	c-7.5-7.3-13.3-16.2-17-26c-3.6-9.3-6.1-20-6.8-35.7c-0.7-15.7-0.9-20.7-0.9-60.6s0.2-44.9,0.9-60.6c0.7-15.6,3.2-26.3,6.8-35.7
	c3.7-9.8,9.5-18.7,17-26c7.3-7.5,16.2-13.3,26-17c9.4-3.6,20-6.1,35.7-6.8c15.7-0.7,20.7-0.9,60.6-0.9s44.9,0.2,60.6,0.9
	c15.6,0.7,26.3,3.2,35.7,6.8c9.8,3.7,18.7,9.5,26,17c7.5,7.3,13.3,16.2,17,26c3.6,9.4,6.1,20,6.8,35.7c0.7,15.7,0.9,20.7,0.9,60.6
	S514.8,260.9,514.1,276.6z"/>
</svg>
