<?xml version="1.0" encoding="utf-8"?>
<!-- Generator: Adobe Illustrator 19.0.0, SVG Export Plug-In . SVG Version: 6.00 Build 0)  -->
<svg version="1.1" id="Layer_1" xmlns="http://www.w3.org/2000/svg" xmlns:xlink="http://www.w3.org/1999/xlink" x="0px" y="0px"
	 viewBox="112 -40 512 512" style="enable-background:new 112 -40 512 512;" xml:space="preserve">
<style type="text/css">
	.st0{fill:#FFFFFF;}
</style>
<path class="st0" d="M587.1-40H148.9C128.5-40,112-23.5,112-3.1v438.1c0,20.4,16.5,36.9,36.9,36.9h438.1c20.4,0,36.9-16.5,36.9-36.9
	V-3.1C624-23.5,607.5-40,587.1-40z M293.6,347h-62.3V159.4h62.3V347z M262.4,133.8H262c-20.9,0-34.5-14.4-34.5-32.4
	c0-18.4,13.9-32.4,35.3-32.4s34.5,14,34.9,32.4C297.7,119.4,284.2,133.8,262.4,133.8z M518.4,347h-62.3V246.7
	c0-25.2-9-42.4-31.6-42.4c-17.2,0-27.5,11.6-32,22.8c-1.6,4-2.1,9.6-2.1,15.2V347h-62.3c0,0,0.8-170,0-187.6h62.3V186
	c8.3-12.8,23.1-31,56.2-31c41,0,71.8,26.8,71.8,84.4V347z"/>
</svg>
